<svg xmlns="http://www.w3.org/2000/svg" width="512" height="512" viewBox="0 0 512 512"><path fill="#ED6D00" d="M512 472c0 22.094-17.906 40-40 40H40c-22.094 0-40-17.906-40-40V40C0 17.906 17.906 0 40 0h432c22.094 0 40 17.906 40 40v432z"/><g fill-rule="evenodd" clip-rule="evenodd" fill="#FFF"><path d="M50.24 206.964h1.949c5.729.905 4.233 8.998 4.233 16.432v13.013c18.602-9.265 37.197-19.942 56.11-29.445h1.794c2.328.86 4.211 2.223 3.906 5.373-.333 3.372-4.461 4.558-7.486 6.182-8.7 4.676-18.269 9.959-26.51 14.147 8.566 5.804 17.203 11.414 26.346 17.241 2.337 1.489 7.235 3.6 7.65 6.829.408 3.213-1.957 5.953-5.536 5.533-1.61-.188-3.52-1.78-5.041-2.766-10.747-6.959-22.951-14.965-33.18-21.471-6.181 2.979-11.947 6.381-18.053 9.435-.423 4.009.636 7.788-.164 11.064-1.276 5.178-9.547 4.793-10.413-.489v-46.684c.594-2.333 2.061-3.8 4.395-4.394zM397.021 206.964h2.123c5.185.777 4.221 6.84 4.221 13.179 0 3.98-.504 8.299 1.956 9.924 2.194 1.451 8.08.815 12.036.815h38.051c.297-2.885.162-6.802.162-10.738 0-6.545-.857-12.179 4.24-13.179h2.105c2.162.608 3.57 1.956 4.238 4.069v39.69c-1.024 5.507-4.833 10.084-12.036 10.575-8.538.571-17.578 0-27.17 0h-13.666c-6.909 0-16.04 1.658-16.262-4.394-.236-6.707 9.975-4.718 16.424-4.718h27.662c3.938 0 10.506.871 12.851-.975 2.65-2.09 1.258-6.916 1.613-11.222h-25.526c-9.056 0-18.169.534-25.539 0-4.818-.357-8.523-3.06-10.255-6.344-1.514-2.874-1.454-5.788-1.454-10.9.003-6.836-1.404-14.877 4.226-15.782zM141.326 230.067h42.126c5.804 0 12.015-.749 11.064 5.528-.615 4.046-5.551 3.579-10.738 3.579h-42.452c.333 4.96-1.142 10.481 2.111 12.364 2.565 1.479 9.599.648 13.994.648h36.598c4.823 0 9.107-.214 9.107 4.551 0 6.294-9.761 4.561-16.757 4.561h-32.203c-5.254 0-11.48.585-15.29-.653-3.713-1.207-6.676-4.565-7.648-7.811-1.259-4.225-.49-12.274-.49-17.893 0-5.342-.858-13.303.328-17.89 1.134-4.367 4.921-8.352 10.249-8.945 4.824-.542 10.035 0 15.126 0h37.903c4.861 0 8.991-.097 8.782 4.712-.258 5.996-9.842 4.233-16.593 4.233h-30.254c-4.609 0-11.666-.719-13.66 1.304-2.156 2.18-1.007 7.664-1.303 11.712zM259.084 239.663c7.427 3.93 15.431 7.678 23.596 11.713 2.728 1.355 6.016 2.51 6.345 5.528.311 3.001-1.748 5.035-3.749 5.366-2.624.435-5.014-1.402-6.995-2.438-12.778-6.703-24.256-12.67-37.248-19.198-2.277-1.141-4.373-2.467-4.55-4.713-.497-6.107 6.062-5.039 12.361-5.039h10.087c6.879 0 17.021 1.207 19.35-2.283 1.981-2.966 1.42-8.82-1.455-10.569-2.371-1.43-7.458-.978-11.725-.978h-37.565c-.303 11.555-.163 20.966-.163 32.21 0 3.816.386 7.9-.652 10.08-1.58 3.304-7.448 4.039-9.436.326-1.036-1.952-.651-7.508-.651-11.55v-24.397c0-4.068-.599-9.849.325-12.362 1.423-3.854 5.449-3.253 10.904-3.253h20.982c9.99 0 18.926-.712 28.144 0 2.862.223 5.898 1.251 7.635 2.438 5.528 3.773 7.231 14.985 3.911 22.123-4.21 9.012-16.5 7.308-29.451 6.996zM347.738 239.663c7.084 3.645 15.636 8.014 23.906 11.875 2.668 1.238 5.958 2.487 6.022 5.855.045 2.63-1.946 4.594-3.898 4.878-2.641.383-5.059-1.402-6.999-2.438-12.365-6.585-24-12.215-36.76-19.036-2.18-1.164-4.536-2.281-4.875-4.387-1.052-6.298 5.571-5.528 11.548-5.528h18.867c5.144 0 9.931.451 11.712-2.765 1.582-2.882.932-8.173-1.632-9.922-2.434-1.662-7.38-1.142-11.547-1.142h-38.064c-.296 11.592-.162 20.433-.162 31.557 0 5.766 1.082 12.198-3.574 13.499-2.803.784-5.737-.58-6.667-2.931-.935-2.351-.329-8.605-.329-11.71v-24.072c0-6.901-1.466-14.29 4.06-15.29 4.005-.719 9.385 0 14.158 0h13.992c9.948 0 19.018-.652 27.972 0 3.645.267 6.67 1.423 8.789 3.253 4.685 4.047 6.002 14.764 2.92 21.308-4.211 8.955-16.039 7.314-29.439 6.996z"/></g><g fill="#FFF"><path d="M67.669 312.446c-4.79.003-9.581.014-14.371 0-4.824-.014-7.724-2.598-7.883-7.395-.169-5.104-.143-10.221-.006-15.326.123-4.58 2.456-7.185 7.102-7.365 7.732-.299 15.48-.188 23.221-.246 2.315-.017 4.632-.073 6.945-.018 2.267.055 3.635 1.239 3.627 2.985-.007 1.754-1.357 2.904-3.653 2.912-9.022.033-18.043.015-27.065.024-3.064.003-4.891 2.9-3.376 5.549.303.529 1.455.797 2.219.803 7.345.058 14.69.032 22.035.035.798 0 1.773-.255 2.355.107 1.027.64 2.273 1.524 2.593 2.563.486 1.581-.662 2.713-2.294 3.022-.931.176-1.905.175-2.86.177-6.946.013-13.892.003-20.838.007-3.315.002-3.336.028-3.37 3.039-.031 2.691.724 3.463 3.624 3.471 8.543.022 17.085.003 25.628.001.639 0 1.277.006 1.916.004 1.807-.007 2.961.89 3.033 2.676.078 1.936-1.147 2.939-3.015 2.956-5.188.046-10.378.016-15.567.019zM320.392 312.455c-4.869 0-9.738.017-14.607-.005-4.781-.022-7.592-2.792-7.633-7.584a775.12 775.12 0 0 1 .008-15.325c.047-4.217 2.274-6.93 6.468-7.135 6.529-.32 13.078-.235 19.618-.287 3.512-.028 7.025-.032 10.536.042 2.956.062 4.043.919 4.029 2.947-.014 2.028-1.181 2.89-4.063 2.895-8.78.014-17.561.003-26.341.002-3.234 0-5.022 2.814-3.444 5.646.285.512 1.48.718 2.257.724 7.503.052 15.006.026 22.509.038.794.001 1.825-.19 2.329.221.894.728 2.036 1.865 2.011 2.803-.024.903-1.253 2-2.214 2.58-.726.439-1.863.251-2.817.253-7.104.016-14.208.028-21.312-.004-1.718-.008-3.133-.078-3.015 2.421.155 3.283.543 4.078 3.221 4.089 8.86.038 17.72.015 26.58.017.638 0 1.288-.057 1.912.041 1.698.268 2.481 1.347 2.379 3.024-.117 1.909-1.358 2.581-3.086 2.584-5.109.012-10.217.004-15.326.004l.001.009zM448.122 282.33c4.31 0 8.621-.003 12.931.001 3.663.004 4.751.675 4.699 2.879-.05 2.128-1.209 2.796-4.863 2.798-8.381.004-16.763-.055-25.142.088-1.031.018-2.445.886-2.946 1.775-.46.816-.304 2.477.275 3.242.581.768 2.013 1.224 3.081 1.24 6.783.105 13.568.042 20.353.05 8.075.009 11.651 4.633 9.647 12.456-.877 3.426-3.521 5.507-7.715 5.554-9.497.106-18.997.046-28.495.02-1.854-.005-3.385-.633-3.377-2.833.009-2.343 1.573-2.827 3.571-2.82 8.301.028 16.602.02 24.904-.004.945-.003 1.915-.083 2.829-.31 1.67-.415 2.266-1.703 2.149-3.283-.118-1.585-.872-2.728-2.644-2.837-.875-.054-1.751-.114-2.627-.116-6.465-.011-12.932.07-19.396-.029-7.891-.121-11.518-5.346-9.022-12.908 1.051-3.183 3.534-4.657 6.716-4.884 2.539-.182 5.098-.077 7.649-.087 2.474-.009 4.949-.002 7.423-.002v.01zM384.314 282.332c4.706 0 9.413-.044 14.118.018 2.471.032 3.723 1.071 3.546 2.85-.221 2.221-1.766 2.806-3.741 2.805-8.62-.007-17.241-.054-25.859.079-1.16.018-2.762.664-3.367 1.556-1.517 2.236.178 4.722 3.119 4.745 7.023.054 14.052-.133 21.068.1 2.284.076 4.944.586 6.713 1.881 3.558 2.604 3.255 6.677 2.421 10.529-.685 3.159-3.241 5.348-7.056 5.43-9.892.211-19.791.131-29.687.088-1.725-.008-2.819-.986-2.777-2.894.046-2.078 1.266-2.72 3.138-2.718 8.7.009 17.399-.017 26.099-.008 1.796.002 3.391-.259 3.918-2.324.644-2.526-.57-4.151-3.355-4.189-6.224-.086-12.45-.041-18.676-.068a57.423 57.423 0 0 1-4.065-.15c-5.539-.418-8.246-3.662-7.961-9.498.265-5.431 3.299-8.307 8.758-8.304 4.549.002 9.098 0 13.647 0l-.001.072zM259.974 300.428l10.91 5.404c.571.283 1.151.551 1.706.863 1.694.953 2.523 2.34 1.483 4.157-1.004 1.755-2.602 1.926-4.345 1.021l-16.557-8.601c-1.769-.919-3.523-1.87-5.317-2.739-1.546-.749-2.77-1.659-2.408-3.633.388-2.115 2.125-2.226 3.702-2.253 5.267-.089 10.536-.014 15.803-.088 2.697-.038 3.589-.986 3.539-3.41-.041-1.988-.934-3.174-3.038-3.176-7.503-.008-15.006.019-22.509-.029-1.71-.011-1.931.915-1.923 2.291.032 5.747.014 11.494.013 17.241 0 .558.041 1.124-.028 1.674-.237 1.898-1.259 3.113-3.225 3.23-1.776.106-3.207-1.362-3.273-3.411-.087-2.711-.023-5.427-.023-8.141 0-4.869-.023-9.738.012-14.607.02-2.756 1-3.867 3.702-3.877 9.816-.039 19.635-.095 29.449.074 5.528.095 8.525 4.978 7.27 11.322-.867 4.385-3.526 6.47-8.63 6.589-2.064.048-4.134-.161-6.202-.254l-.111.353zM189.454 282.351c4.15 0 8.31.194 12.447-.04 9.098-.514 10.524 6.286 9.252 12.319-.67 3.175-2.837 5.078-5.983 5.336-4.281.352-8.594.355-12.895.419-4.229.063-8.46.073-12.688-.013-1.632-.033-2.326.45-2.241 2.164.106 2.149-.03 4.308.01 6.462.038 2.079-1.136 3.209-2.99 3.338-1.942.135-3.179-1.009-3.195-3.052-.062-7.897-.149-15.795-.067-23.691.026-2.464 1.205-3.27 3.747-3.266 4.868.007 9.735.002 14.603.002v.022zm.956 12.225c3.511 0 7.022.031 10.532-.009 2.928-.033 4.193-1.125 4.136-3.439-.056-2.26-1.188-3.14-4.094-3.142-6.463-.005-12.926-.025-19.389.01-4.588.025-4.109-.717-4.256 4.207-.06 1.994.758 2.45 2.54 2.402 3.508-.094 7.02-.028 10.531-.029zM123.6 296.459l-11.628-8.042c-.328-.227-.676-.429-.982-.681-1.378-1.138-2.111-2.51-.923-4.138 1.141-1.564 2.734-1.583 4.245-.591a267.048 267.048 0 0 1 8.676 5.948c5.882 4.207 5.863 4.223 11.915.16 2.713-1.822 5.446-3.614 8.168-5.423 1.63-1.084 3.217-1.156 4.382.569 1.178 1.744.444 3.186-1.152 4.267-1.98 1.341-3.983 2.65-5.981 3.964-1.924 1.266-3.855 2.521-6.096 3.986.786.612 1.352 1.096 1.961 1.518 3.144 2.183 6.3 4.347 9.448 6.523 2.089 1.444 2.622 2.978 1.602 4.575-1.037 1.624-2.605 1.723-4.754.263-3.89-2.643-7.813-5.241-11.632-7.983-1.431-1.027-2.447-1.174-3.989-.071-3.823 2.735-7.823 5.223-11.754 7.808-.333.219-.679.418-1.014.633-1.571 1.011-3.119 1.019-4.18-.601-1.115-1.702-.493-3.209 1.136-4.294 3.382-2.253 6.782-4.479 10.17-6.724.707-.469 1.393-.972 2.382-1.666z"/></g></svg>